<svg width="10" height="10" viewBox="0 0 10 10" fill="none" xmlns="http://www.w3.org/2000/svg">
<path d="M5 0.0078146C5.14062 0.00781465 5.25781 0.0546897 5.35156 0.14844C5.44531 0.24219 5.49219 0.359377 5.49219 0.500002L5.49219 4.15625L8.75 2.30469C8.875 2.24219 9 2.23438 9.125 2.28125C9.26562 2.3125 9.36719 2.39063 9.42969 2.51563C9.50781 2.625 9.52344 2.75 9.47656 2.89063C9.44531 3.01563 9.36719 3.11719 9.24219 3.19532L6.03125 5L9.24218 6.80469C9.36718 6.88282 9.44531 6.99219 9.47656 7.13282C9.52343 7.25782 9.50781 7.375 9.42968 7.48438C9.36718 7.60938 9.26562 7.69532 9.125 7.74219C9 7.77344 8.875 7.75782 8.75 7.69532L5.49219 5.84375L5.49218 9.5C5.49218 9.64063 5.44531 9.75781 5.35156 9.85156C5.25781 9.94531 5.14062 9.99219 5 9.99219C4.85937 9.99219 4.74218 9.94531 4.64843 9.85156C4.55468 9.75781 4.50781 9.64063 4.50781 9.5L4.50781 5.84375L1.25 7.69531C1.125 7.75781 0.992184 7.77344 0.851559 7.74219C0.726559 7.69531 0.632809 7.60938 0.57031 7.48438C0.492185 7.375 0.468747 7.25781 0.499997 7.13281C0.546872 6.99219 0.63281 6.88281 0.75781 6.80469L3.96875 5L0.757811 3.19531C0.632811 3.11719 0.546874 3.01563 0.499999 2.89063C0.468749 2.75 0.492186 2.625 0.570311 2.51563C0.632811 2.39063 0.726561 2.3125 0.851561 2.28125C0.992186 2.23438 1.125 2.24219 1.25 2.30469L4.50781 4.15625L4.50781 0.500002C4.50781 0.359377 4.55469 0.242189 4.64844 0.148439C4.74219 0.0546895 4.85937 0.00781455 5 0.0078146Z" fill="#6C757D"/>
</svg>
