<svg xmlns="http://www.w3.org/2000/svg" width="20" height="20" viewBox="0 0 20 20" fill="none">
  <path d="M8.68555 7.27698C8.49756 7.08923 8.26294 6.99536 7.9812 6.99536C7.69946 6.99536 7.46484 7.08923 7.2771 7.27698C7.16724 7.38684 7.08936 7.51282 7.0437 7.65479C7.01147 7.75562 6.99536 7.86438 6.99536 7.9812V15.0234C6.99536 15.3052 7.08911 15.5399 7.2771 15.7277C7.39502 15.8457 7.53149 15.9266 7.68652 15.9705C7.77832 15.9965 7.87646 16.0094 7.9812 16.0094C8.26294 16.0094 8.49756 15.9155 8.68555 15.7277C8.90454 15.5399 9.01416 15.3052 9.01416 15.0234V7.9812C9.01416 7.69958 8.90454 7.46484 8.68555 7.27698Z" fill="#EE2D3D"/>
  <path d="M12.7229 7.27698C12.5352 7.08923 12.3005 6.99536 12.0188 6.99536C11.8765 6.99536 11.7419 7.01941 11.6155 7.06738C11.4919 7.11426 11.376 7.1842 11.2676 7.27698C11.0798 7.46484 10.9858 7.69958 10.9858 7.9812V15.0234C10.9858 15.3052 11.0798 15.5399 11.2676 15.7277C11.4868 15.9155 11.7371 16.0094 12.0188 16.0094C12.3005 16.0094 12.5352 15.9155 12.7229 15.7277C12.9109 15.5399 13.0046 15.3052 13.0046 15.0234V7.9812C13.0046 7.69958 12.9109 7.46484 12.7229 7.27698Z" fill="#EE2D3D"/>
  <path fill-rule="evenodd" clip-rule="evenodd" d="M0.281738 3.28638C0.0939941 3.47412 0 3.70886 0 3.9906C0 4.27234 0.0939941 4.50708 0.281738 4.69482C0.469482 4.88257 0.704346 4.97656 0.98584 4.97656H3.00464V18.3098C3.00464 18.5289 3.03589 18.748 3.09863 18.9672C3.19238 19.1549 3.31763 19.327 3.47412 19.4835C3.56006 19.5868 3.65088 19.6759 3.74658 19.7509C3.82471 19.8121 3.90601 19.8639 3.99072 19.9061C4.20972 19.9688 4.42871 20 4.64795 20H15.3521C15.5713 20 15.7747 19.9688 15.9624 19.9061C16.1816 19.8123 16.3694 19.6714 16.5259 19.4835C16.6824 19.327 16.7917 19.1549 16.8545 18.9672C16.9482 18.748 16.9954 18.5289 16.9954 18.3098V4.97656H19.0142C19.2957 4.97656 19.5305 4.88257 19.7183 4.69482C19.906 4.50708 20 4.27234 20 3.9906C20 3.70886 19.906 3.47412 19.7183 3.28638C19.5305 3.09863 19.2957 3.00464 19.0142 3.00464H15.0234C15.0234 2.82837 15.0098 2.6554 14.9822 2.48596C14.9509 2.29456 14.9021 2.10754 14.8357 1.92493C14.7104 1.54932 14.5383 1.2207 14.3193 0.938965C14.1001 0.657227 13.8184 0.438232 13.4741 0.281738C13.1611 0.0938721 12.8013 0 12.3943 0H7.60571C7.19873 0 6.82324 0.0938721 6.47876 0.281738C6.32275 0.359741 6.17871 0.453247 6.04614 0.562256C5.9126 0.671997 5.79077 0.797607 5.68066 0.938965C5.46167 1.2207 5.28955 1.54932 5.16431 1.92493C5.03906 2.26917 4.97656 2.62915 4.97656 3.00464H0.98584C0.704346 3.00464 0.469482 3.09863 0.281738 3.28638ZM6.99536 3.00464C6.99536 2.81689 7.01099 2.6604 7.04224 2.53516C7.08057 2.45825 7.11914 2.38721 7.15747 2.32214C7.18164 2.28137 7.20581 2.2428 7.22998 2.20654C7.32397 2.11267 7.4021 2.05005 7.46484 2.0188C7.52734 1.98743 7.57422 1.9718 7.60571 1.9718H12.3943C12.4258 1.9718 12.4727 1.98743 12.5352 2.0188C12.5979 2.05005 12.676 2.11267 12.77 2.20654C12.8325 2.30042 12.8794 2.41003 12.9109 2.53516C12.9734 2.6604 13.0046 2.81689 13.0046 3.00464H6.99536ZM4.97656 4.97656V8H5V12H4.97656V18.0282H15.0234V4.97656H4.97656Z" fill="#EE2D3D"/>
</svg>
