<svg xmlns="http://www.w3.org/2000/svg" width="20" height="20" viewBox="0 0 20 20" fill="none">
  <path d="M14.4006 2.13198L12.5732 3.95939L16.0406 7.42679L17.868 5.59938L14.4006 2.13198ZM14.6349 8.83249L11.1675 5.36509L3.48301 13.0027L6.8567 16.6107L14.6349 8.83249ZM5.16986 17.7353L2.3116 14.6427L2.03046 17.9695L5.16986 17.7353ZM19.4143 6.86451L7.18469 19.141C7.12222 19.2034 7.04412 19.2659 6.95041 19.3284C6.8567 19.3909 6.76298 19.4533 6.66927 19.5158C6.54432 19.5471 6.43499 19.5783 6.34127 19.6095C6.24756 19.6408 6.13823 19.6564 6.01328 19.6564L1.79617 19.9844C1.54627 20.0156 1.31199 20 1.09332 19.9375C0.874658 19.8438 0.671613 19.7032 0.484186 19.5158C0.296759 19.3284 0.156189 19.1253 0.0624756 18.9067C0 18.688 -0.0156189 18.4537 0.0156189 18.2038L0.343616 13.9867C0.343616 13.8618 0.359235 13.7524 0.390472 13.6587C0.42171 13.565 0.452948 13.4557 0.484186 13.3307C0.546661 13.237 0.609137 13.1433 0.671613 13.0496C0.734088 12.9559 0.796564 12.8778 0.859039 12.8153L13.1355 0.585709C13.198 0.491995 13.2761 0.413901 13.3698 0.351425C13.4635 0.28895 13.5572 0.242093 13.6509 0.210855C13.7446 0.14838 13.8383 0.101523 13.9321 0.070285C14.057 0.0390472 14.182 0.0234283 14.3069 0.0234283C14.4319 -0.00780945 14.5412 -0.00780945 14.6349 0.0234283C14.7599 0.0234283 14.8848 0.0546661 15.0098 0.117142C15.1347 0.14838 15.244 0.195236 15.3378 0.257712C15.4315 0.320187 15.5252 0.398282 15.6189 0.491995L19.508 4.3811C19.6017 4.47481 19.6798 4.56853 19.7423 4.66224C19.8048 4.75595 19.8516 4.86529 19.8829 4.99024C19.9453 5.11519 19.9766 5.24014 19.9766 5.36509C20.0078 5.45881 20.0078 5.56814 19.9766 5.69309C19.9766 5.81804 19.961 5.94299 19.9297 6.06794C19.8985 6.16166 19.8516 6.25537 19.7891 6.34908C19.7579 6.4428 19.7111 6.53651 19.6486 6.63022C19.5861 6.72394 19.508 6.80203 19.4143 6.86451Z" fill="#0D6CF2"/>
</svg>
