<svg xmlns="http://www.w3.org/2000/svg" width="20" height="20" viewBox="0 0 20 20" fill="none">
  <path d="M12.0455 16.8377V12.8642C12.0455 12.6885 11.9736 12.5201 11.8458 12.3959C11.7179 12.2717 11.5445 12.2019 11.3636 12.2019H8.63636C8.45553 12.2019 8.28211 12.2717 8.15425 12.3959C8.02638 12.5201 7.95455 12.6885 7.95455 12.8642V16.8377C7.95455 17.0134 7.88271 17.1818 7.75485 17.306C7.62698 17.4302 7.45356 17.5 7.27273 17.5H3.18182C3.00099 17.5 2.82757 17.4302 2.6997 17.306C2.57183 17.1818 2.5 17.0134 2.5 16.8377V9.18035C2.50153 9.0887 2.52192 8.99827 2.55997 8.91439C2.59803 8.8305 2.65298 8.75487 2.72159 8.69193L9.53977 2.67363C9.66546 2.56194 9.82965 2.5 10 2.5C10.1704 2.5 10.3345 2.56194 10.4602 2.67363L17.2784 8.69193C17.347 8.75487 17.402 8.8305 17.44 8.91439C17.4781 8.99827 17.4985 9.0887 17.5 9.18035V16.8377C17.5 17.0134 17.4282 17.1818 17.3003 17.306C17.1724 17.4302 16.999 17.5 16.8182 17.5H12.7273C12.5464 17.5 12.373 17.4302 12.2452 17.306C12.1173 17.1818 12.0455 17.0134 12.0455 16.8377Z" stroke="#6C757D" stroke-width="2" stroke-linecap="round" stroke-linejoin="round"/>
</svg>
